nColumns=19
nRows=73
DataType=double
version=3
OpenSimVersion=4.1
endheader
time	ground_force_1_vx	ground_force_1_vy	ground_force_1_vz	ground_force_1_px	ground_force_1_py	ground_force_1_pz	ground_force_1_mx	ground_force_1_my	ground_force_1_mz	ground_force_2_vx	ground_force_2_vy	ground_force_2_vz	ground_force_2_px	ground_force_2_py	ground_force_2_pz	ground_force_2_mx	ground_force_2_my	ground_force_2_mz
0	-7.54413	78.3742	0.625069	0.16135	0.006	-0.136205	0	0.006492	0	0	0	0	0.707981	0	-0.320176	0	0	0
0.01	-8.43443	98.3883	-0.91797	0.167324	0.006	-0.134925	0	0.031183	0	0	0	0	0.707981	0	-0.320176	0	0	0
0.02	-10.4317	121.761	-2.92486	0.174146	0.006	-0.133685	0	0.050357	0	0	0	0	0.707981	0	-0.320176	0	0	0
0.03	-13.6515	148.423	-5.42093	0.180737	0.006	-0.132676	0	0.061459	0	0	0	0	0.707981	0	-0.320176	0	0	0
0.04	-18.0768	178.314	-8.40437	0.187097	0.006	-0.131864	0	0.064648	0	0	0	0	0.707981	0	-0.320176	0	0	0
0.05	-23.6153	211.345	-11.8546	0.193216	0.006	-0.131223	0	0.061765	0	0	0	0	0.707981	0	-0.320176	0	0	0
0.06	-30.1263	247.325	-15.7383	0.199073	0.006	-0.130732	0	0.055196	0	0	0	0	0.707981	0	-0.320176	0	0	0
0.07	-37.4177	285.927	-20.0051	0.204639	0.006	-0.130371	0	0.04719	0	0	0	0	0.707981	0	-0.320176	0	0	0
0.08	-45.2407	326.642	-24.5807	0.209881	0.006	-0.130123	0	0.039602	0	0	0	0	0.707981	0	-0.320176	0	0	0
0.09	-53.2864	368.782	-29.3655	0.214769	0.006	-0.129974	0	0.03383	0	0	0	0	0.707981	0	-0.320176	0	0	0
0.1	-61.2062	411.514	-34.245	0.219281	0.006	-0.129906	0	0.030416	0	0	0	0	0.707981	0	-0.320176	0	0	0
0.11	-68.6632	453.969	-39.1092	0.223417	0.006	-0.129905	0	0.028305	0	0	0	0	0.707981	0	-0.320176	0	0	0
0.12	-75.3685	495.309	-43.8578	0.227195	0.006	-0.129955	0	0.024926	0	0	0	0	0.707981	0	-0.320176	0	0	0
0.13	-81.0824	534.731	-48.3919	0.230643	0.006	-0.130043	0	0.017353	0	0	0	0	0.707981	0	-0.320176	0	0	0
0.14	-85.6267	571.449	-52.6135	0.233799	0.006	-0.130159	0	0.003044	0	0	0	0	0.707981	0	-0.320176	0	0	0
0.15	-88.8936	604.719	-56.4278	0.236713	0.006	-0.130294	0	-0.019838	0	0	0	0	0.707981	0	-0.320176	0	0	0
0.16	-90.8448	633.872	-59.7498	0.239437	0.006	-0.130438	0	-0.052495	0	0	0	0	0.707981	0	-0.320176	0	0	0
0.17	-91.5073	658.358	-62.5088	0.242029	0.006	-0.130585	0	-0.09553	0	0	0	0	0.707981	0	-0.320176	0	0	0
0.18	-90.9575	677.778	-64.6522	0.244544	0.006	-0.130729	0	-0.14886	0	0	0	0	0.707981	0	-0.320176	0	0	0
0.19	-89.303	691.907	-66.1509	0.247029	0.006	-0.130866	0	-0.211816	0	0	0	0	0.707981	0	-0.320176	0	0	0
0.2	-86.669	700.697	-66.9994	0.249529	0.006	-0.130991	0	-0.283379	0	0	0	0	0.707981	0	-0.320176	0	0	0
0.21	-83.1893	704.27	-67.215	0.252082	0.006	-0.131099	0	-0.3624	0	0	0	0	0.707981	0	-0.320176	0	0	0
0.22	-79.0044	702.9	-66.8353	0.254723	0.006	-0.131185	0	-0.447599	0	0	0	0	0.707981	0	-0.320176	0	0	0
0.23	-74.2599	696.991	-65.9159	0.257485	0.006	-0.131244	0	-0.537543	0	0	0	0	0.707981	0	-0.320176	0	0	0
0.24	-69.1036	687.058	-64.5271	0.260399	0.006	-0.131267	0	-0.630852	0	0	0	0	0.707981	0	-0.320176	0	0	0
0.25	-63.681	673.701	-62.7506	0.263498	0.006	-0.131247	0	-0.726531	0	0	0	0	0.707981	0	-0.320176	0	0	0
0.26	-58.1297	657.575	-60.6766	0.266808	0.006	-0.131176	0	-0.824082	0	0	0	0	0.707981	0	-0.320176	0	0	0
0.27	-52.5726	639.369	-58.4001	0.270353	0.006	-0.131044	0	-0.923516	0	0	0	0	0.707981	0	-0.320176	0	0	0
0.28	-47.1145	619.779	-56.0178	0.274148	0.006	-0.130843	0	-1.02536	0	0	0	0	0.707981	0	-0.320176	0	0	0
0.29	-41.8392	599.495	-53.6244	0.278201	0.006	-0.130566	0	-1.13034	0	0	0	0	0.707981	0	-0.320176	0	0	0
0.3	-36.8095	579.184	-51.3079	0.282508	0.006	-0.130207	0	-1.23892	0	0	0	0	0.707981	0	-0.320176	0	0	0
0.31	-32.0676	559.487	-49.1463	0.287053	0.006	-0.129765	0	-1.35102	0	0	0	0	0.707981	0	-0.320176	0	0	0
0.32	-27.6361	540.997	-47.2045	0.291804	0.006	-0.129244	0	-1.46588	0	0	0	0	0.707981	0	-0.320176	0	0	0
0.33	-23.5197	524.255	-45.5315	0.296719	0.006	-0.128652	0	-1.58219	0	0	0	0	0.707981	0	-0.320176	0	0	0
0.34	-19.7063	509.728	-44.1588	0.301737	0.006	-0.128009	0	-1.69846	0	0	0	0	0.707981	0	-0.320176	0	0	0
0.35	-16.1683	497.805	-43.1016	0.306784	0.006	-0.127337	0	-1.81336	0	0	0	0	0.707981	0	-0.320176	0	0	0
0.36	-12.863	488.783	-42.3605	0.311776	0.006	-0.126662	0	-1.92588	0	0	0	0	0.707981	0	-0.320176	0	0	0
0.37	-9.73434	482.865	-41.9272	0.316622	0.006	-0.126011	0	-2.03537	0	0	0	0	0.707981	0	-0.320176	0	0	0
0.38	-6.71736	480.145	-41.7897	0.321237	0.006	-0.125407	0	-2.14113	0	0	0	0	0.707981	0	-0.320176	0	0	0
0.39	-3.74352	480.61	-41.9363	0.325551	0.006	-0.124867	0	-2.24196	0	0	0	0	0.707981	0	-0.320176	0	0	0
0.4	-0.745605	484.146	-42.3547	0.329518	0.006	-0.124404	0	-2.33589	0	0	0	0	0.707981	0	-0.320176	0	0	0
0.41	2.34039	490.544	-43.0295	0.333117	0.006	-0.124022	0	-2.42017	0	0	0	0	0.707981	0	-0.320176	0	0	0
0.42	5.5742	499.517	-43.9391	0.336352	0.006	-0.123722	0	-2.49152	0	0	0	0	0.707981	0	-0.320176	0	0	0
0.43	9.00978	510.705	-45.0518	0.339245	0.006	-0.123501	0	-2.54656	0	0	0	0	0.707981	0	-0.320176	0	0	0
0.44	12.6939	523.683	-46.3244	0.341831	0.006	-0.123354	0	-2.58257	0	0	0	0	0.707981	0	-0.320176	0	0	0
0.45	16.6643	537.966	-47.7018	0.344152	0.006	-0.123276	0	-2.5976	0	0	0	0	0.707981	0	-0.320176	0	0	0
0.46	20.9472	553.022	-49.1191	0.346251	0.006	-0.123259	0	-2.59057	0	0	0	0	0.707981	0	-0.320176	0	0	0
0.47	25.5553	568.274	-50.5046	0.348173	0.006	-0.123298	0	-2.56108	0	0	0	0	0.707981	0	-0.320176	0	0	0
0.48	30.4835	583.111	-51.7828	0.349955	0.006	-0.123389	0	-2.50922	0	0	0	0	0.707981	0	-0.320176	0	0	0
0.49	35.705	596.889	-52.8771	0.351633	0.006	-0.123527	0	-2.43544	0	0	0	0	0.707981	0	-0.320176	0	0	0
0.5	41.1678	608.945	-53.7124	0.353238	0.006	-0.123709	0	-2.34053	0	0	0	0	0.707981	0	-0.320176	0	0	0
0.51	46.7945	618.609	-54.2185	0.354796	0.006	-0.12393	0	-2.2257	0	0	0	0	0.707981	0	-0.320176	0	0	0
0.52	52.4819	625.219	-54.333	0.356329	0.006	-0.124191	0	-2.09275	0	0	0	0	0.707981	0	-0.320176	0	0	0
0.53	58.1019	628.14	-54.0041	0.357859	0.006	-0.124488	0	-1.94431	0	0	0	0	0.707981	0	-0.320176	0	0	0
0.54	63.5027	626.784	-53.1927	0.359399	0.006	-0.124821	0	-1.78405	0	0	0	0	0.707981	0	-0.320176	0	0	0
0.55	68.5115	620.638	-51.8741	0.360964	0.006	-0.12519	0	-1.61664	0	6.6665	25.4089	-2.90053	0.721433	0.006	-0.32334	0	0.605772	0
0.56	72.9384	609.295	-50.0417	0.362565	0.006	-0.125592	0	-1.44748	0	6.22265	42.3424	-2.47967	0.764535	0.006	-0.333036	0	0.669618	0
0.57	76.5843	592.482	-47.7087	0.364213	0.006	-0.126027	0	-1.28192	0	4.98455	63.1509	-1.84277	0.788385	0.006	-0.337882	0	0.696611	0
0.58	79.2529	570.1	-44.911	0.365917	0.006	-0.126494	0	-1.12468	0	2.70904	87.9202	-0.945211	0.804165	0.006	-0.340709	0	0.70553	0
0.59	80.7636	542.241	-41.7076	0.367684	0.006	-0.126987	0	-0.979228	0	-0.811493	116.578	0.257524	0.815924	0.006	-0.342529	0	0.702742	0
0.6	80.9664	509.212	-38.1799	0.369524	0.006	-0.127503	0	-0.847632	0	-5.62022	149.041	1.80792	0.825464	0.006	-0.343788	0	0.690663	0
0.61	79.7564	471.542	-34.4255	0.371444	0.006	-0.128034	0	-0.730544	0	-11.6291	185.241	3.75024	0.833665	0.006	-0.34471	0	0.670135	0
0.62	77.0899	429.982	-30.5515	0.373454	0.006	-0.128573	0	-0.627205	0	-18.7058	225.026	6.129	0.840984	0.006	-0.345416	0	0.642033	0
0.63	72.9991	385.481	-26.6669	0.375568	0.006	-0.129109	0	-0.535645	0	-26.6948	268.077	8.9809	0.847667	0.006	-0.345979	0	0.608133	0
0.64	67.5989	339.164	-22.8731	0.377806	0.006	-0.129635	0	-0.453401	0	-35.406	313.857	12.3291	0.853855	0.006	-0.346446	0	0.570847	0
0.65	61.0886	292.281	-19.2581	0.3802	0.006	-0.13014	0	-0.37799	0	-44.5985	361.576	16.1663	0.859631	0.006	-0.346847	0	0.53244	0
0.66	53.755	246.131	-15.8933	0.382801	0.006	-0.130618	0	-0.307292	0	-53.9798	410.21	20.4392	0.865044	0.006	-0.347203	0	0.494498	0
0.67	45.9513	201.964	-12.8293	0.385695	0.006	-0.131061	0	-0.240112	0	-63.232	458.608	25.0547	0.870133	0.006	-0.347528	0	0.458121	0
0.68	38.0627	160.885	-10.0941	0.389027	0.006	-0.131462	0	-0.176161	0	-72.0526	505.686	29.9018	0.874929	0.006	-0.347834	0	0.424472	0
0.69	30.4618	123.766	-7.69603	0.393055	0.006	-0.131815	0	-0.115852	0	-80.1767	550.53	34.8566	0.87946	0.006	-0.348126	0	0.394716	0
0.7	23.4593	91.1977	-5.63015	0.398272	0.006	-0.132105	0	-0.059859	0	-87.3682	592.382	39.7718	0.883745	0.006	-0.348406	0	0.369277	0
0.71	17.2634	63.4683	-3.88796	0.405713	0.006	-0.132292	0	-0.00895	0	-93.426	630.582	44.4856	0.887798	0.006	-0.348675	0	0.348001	0
0.72	11.9672	40.5838	-2.46035	0.417925	0.006	-0.132259	0	0.036245	0	-98.1932	664.527	48.8392	0.891631	0.006	-0.348933	0	0.330887	0
